<svg width="44" height="45" viewBox="0 0 44 45" fill="none" xmlns="http://www.w3.org/2000/svg">
<path d="M22.066 10.0106C15.4018 10.0106 9.9825 15.5531 9.97883 22.365C9.977 25.1456 10.7745 27.2288 12.1128 29.4075L10.8918 33.9675L15.4642 32.7412C17.512 33.9844 19.4682 34.7306 22.055 34.7306C28.7137 34.7306 34.1385 29.1881 34.1403 22.3744C34.1458 15.5475 28.7467 10.0125 22.066 10.0106V10.0106ZM29.172 27.6788C28.8695 28.5469 27.4175 29.3381 26.7208 29.445C26.0957 29.5406 25.3037 29.58 24.4328 29.2988C23.9048 29.1281 23.2283 28.8994 22.363 28.5169C18.7202 26.9081 16.3405 23.1563 16.159 22.9088C15.9775 22.6613 14.6758 20.895 14.6758 19.0669C14.6758 17.2387 15.6145 16.3406 15.9463 15.9675C16.28 15.5925 16.6723 15.4987 16.9143 15.4987L17.611 15.5119C17.8347 15.5231 18.1335 15.4256 18.4287 16.1494C18.7312 16.8937 19.4572 18.7219 19.5488 18.9075C19.6387 19.0931 19.701 19.3106 19.5782 19.5581C19.4572 19.8056 19.3967 19.9612 19.2152 20.1769L18.6707 20.8275C18.4892 21.0131 18.3003 21.2138 18.5112 21.585C18.7238 21.9563 19.4517 23.1731 20.5315 24.1575C21.9193 25.4231 23.089 25.815 23.452 26.0006C23.815 26.1862 24.0277 26.1563 24.2385 25.9069C24.4512 25.6594 25.146 24.8231 25.388 24.45C25.63 24.0769 25.872 24.1406 26.2057 24.2644C26.5393 24.3881 28.325 25.2863 28.688 25.4738C29.051 25.6594 29.293 25.7531 29.3847 25.9069C29.4745 26.0663 29.4745 26.8106 29.172 27.6788V27.6788ZM34.8333 0H9.16667C4.10483 0 0 4.19813 0 9.375V35.625C0 40.8019 4.10483 45 9.16667 45H34.8333C39.897 45 44 40.8019 44 35.625V9.375C44 4.19813 39.897 0 34.8333 0ZM22.0605 37.2412C19.6277 37.2412 17.2315 36.6169 15.1085 35.4319L7.403 37.5L9.4655 29.7975C8.19317 27.5438 7.524 24.9863 7.52583 22.365C7.5295 14.1675 14.0488 7.5 22.0605 7.5C25.949 7.50188 29.5992 9.05062 32.3437 11.8594C35.0882 14.6681 36.5988 18.405 36.597 22.3763C36.5933 30.5738 30.0722 37.2412 22.0605 37.2412V37.2412Z" fill="#00BB2D"/>
</svg>
