<svg width="45" height="45" viewBox="0 0 45 45" fill="none" xmlns="http://www.w3.org/2000/svg">
<path fill-rule="evenodd" clip-rule="evenodd" d="M35.625 45H9.375C4.19813 45 0 40.8019 0 35.625V9.375C0 4.19813 4.19813 0 9.375 0H35.625C40.8038 0 45 4.19813 45 9.375V35.625C45 40.8019 40.8038 45 35.625 45ZM30.48 35.3475C30.8831 35.6344 31.4006 35.7056 31.8637 35.5294C32.325 35.355 32.6662 34.9594 32.7694 34.4794C33.855 29.3756 36.4913 16.4531 37.4794 11.8106C37.5525 11.46 37.4287 11.0963 37.155 10.8619C36.8794 10.6294 36.4969 10.5619 36.1575 10.6875C30.9169 12.6262 14.775 18.6825 8.17688 21.1256C7.75875 21.2794 7.48687 21.6825 7.5 22.125C7.515 22.5656 7.81312 22.95 8.24062 23.0794C11.1994 23.9625 15.0844 25.1944 15.0844 25.1944C15.0844 25.1944 16.8975 30.6769 17.8444 33.4631C17.9625 33.8138 18.2381 34.0894 18.5981 34.1831C18.96 34.2769 19.3425 34.1794 19.6125 33.9244C21.1331 32.49 23.4825 30.2719 23.4825 30.2719C23.4825 30.2719 27.9469 33.5456 30.48 35.3475V35.3475ZM16.7175 24.5025L18.8156 31.425L19.2825 27.0412C19.2825 27.0412 27.39 19.7288 32.0137 15.5588C32.1487 15.4369 32.1675 15.2325 32.055 15.0881C31.9425 14.9437 31.7381 14.91 31.5844 15.0075C26.2275 18.4294 16.7175 24.5025 16.7175 24.5025V24.5025Z" fill="#0088CC"/>
</svg>
