<svg width="579" height="255" viewBox="0 0 579 255" fill="none" xmlns="http://www.w3.org/2000/svg">
<g clip-path="url(#clip0)">
<path d="M104.751 5.40571C98.5348 11.7539 95.5419 16.1399 95.657 18.4483C95.657 19.3717 99.2254 23.9885 103.6 28.7208L111.427 37.2619L120.176 28.1437C125.01 23.1806 128.924 18.6791 128.924 18.3329C128.924 16.717 112.693 -0.0190811 111.082 -0.0190811C110.506 -0.0190811 107.629 2.40476 104.751 5.40571Z" fill="white"/>
<path d="M78.1604 36.5696C73.4409 41.6481 70.2178 46.6112 70.2178 48.8042C70.2178 49.7276 73.6711 53.9981 77.8151 58.2687C84.0311 64.6169 85.8728 65.8865 87.3693 64.9631C90.7075 62.8856 98.9955 51.9206 98.9955 49.4967C98.9955 47.1883 85.4124 32.299 83.3404 32.299C82.6497 32.299 80.3475 34.2611 78.1604 36.5696Z" fill="white"/>
<path d="M130.536 40.3782C126.162 44.7642 122.478 48.9194 122.248 49.4965C121.787 50.8815 135.255 65.7708 136.982 65.7708C138.133 65.7708 154.249 50.3044 154.249 49.1502C154.249 46.8418 142.392 32.2987 140.55 32.2987C139.399 32.2987 134.91 35.8768 130.536 40.3782Z" fill="white"/>
<path d="M109.701 62.6546C108.204 63.2317 107.053 64.155 107.053 64.6167C107.053 65.1938 105.442 67.2714 103.485 69.349C100.377 72.6962 97.8442 76.3897 97.8442 77.6593C97.8442 77.8902 98.8802 79.3906 100.262 80.8911C101.643 82.3916 103.6 84.7 104.636 85.9696C105.672 87.2393 107.744 89.3168 109.125 90.4711L111.773 92.7795L117.989 86.2005C121.442 82.507 124.32 78.5827 124.32 77.4285C124.32 76.1588 122.363 72.6962 119.946 69.5798C113.845 61.962 112.809 61.1541 109.701 62.6546Z" fill="white"/>
<path d="M156.205 72.8115L147.342 81.0064L149.644 84.0074C151.025 85.7387 153.328 89.0859 154.939 91.3943C156.436 93.8181 158.162 95.7803 158.623 95.7803C159.083 95.6649 163.342 92.2023 168.062 87.8162L176.58 79.9676L171.63 72.2344C168.868 68.0792 166.335 64.6166 165.875 64.6166C165.529 64.6166 161.155 68.3101 156.205 72.8115Z" fill="white"/>
<path d="M52.8357 69.4646C48.8069 74.774 47.3104 77.6595 47.1953 79.7371C47.1953 80.7759 50.8789 84.8156 55.3682 88.8553L63.4259 96.0114L67.685 91.0483C75.3975 82.1609 75.2823 82.2763 72.2895 78.6983C69.0664 74.6585 58.2459 65.7711 56.7495 65.7711C56.174 65.7711 54.4473 67.387 52.8357 69.4646Z" fill="white"/>
<path d="M374.686 86.4312C374.34 87.1237 372.384 87.7008 370.542 87.7008C364.211 87.7008 356.959 93.241 352.93 101.205C350.512 106.053 350.628 109.977 353.275 115.171C356.959 122.212 362.829 127.059 384.816 141.141C393.219 146.681 398.284 153.491 398.284 159.493C398.284 163.071 397.478 164.802 394.255 168.034C390.341 171.843 389.88 174.267 392.873 174.267C393.679 174.267 397.363 172.997 401.161 171.497C409.91 167.919 415.205 162.147 416.241 154.991C417.852 143.795 412.327 135.947 393.909 123.712C378.83 113.671 375.607 111.131 372.959 106.745C369.851 101.782 370.081 97.7425 373.65 91.6251C375.376 88.7396 376.412 86.2004 376.067 85.8541C375.722 85.5078 375.146 85.7387 374.686 86.4312Z" fill="white"/>
<path d="M386.772 85.9696C386.772 87.2392 391.722 91.0481 393.449 91.1635C395.751 91.1635 405.881 101.898 408.528 107.207C412.557 115.171 414.169 113.209 413.939 100.513C413.823 93.9337 413.478 92.8949 410.715 90.8173C408.643 89.2014 404.845 88.278 399.204 87.7009C394.6 87.2392 389.88 86.5467 388.844 86.085C387.693 85.5079 386.772 85.5079 386.772 85.9696Z" fill="white"/>
<path d="M277.417 88.1628C277.417 88.3936 278.453 90.9329 279.835 93.9338C282.022 99.1278 282.137 101.09 281.792 132.715C281.446 165.841 281.446 166.072 278.684 168.842C277.302 170.458 276.381 172.305 276.727 172.997C277.187 173.69 282.022 174.036 288.698 173.921L299.864 173.574L300.209 130.638L300.439 87.7011H288.928C282.597 87.7011 277.417 87.9319 277.417 88.1628Z" fill="white"/>
<path d="M308.497 88.7397C308.497 89.3168 310.454 90.8173 312.871 91.9715C318.512 94.7416 320.469 100.282 319.663 111.016C318.857 120.019 316.785 123.597 310.569 126.482C305.504 128.791 305.85 130.06 311.49 131.099C315.749 131.907 321.044 136.062 323.346 140.448C324.037 141.833 324.613 146.681 324.613 151.183C324.613 158.454 324.267 159.955 321.159 164.571C317.936 169.073 317.13 169.65 313.102 169.65C309.303 169.65 308.497 169.996 308.497 171.958C308.497 174.959 310.914 174.959 323.807 171.728C332.325 169.65 334.857 168.496 337.965 165.264C342.225 160.763 343.721 154.53 342.57 145.642C341.994 141.026 341.073 139.525 336.469 135.37C332.21 131.446 329.793 130.291 325.418 129.714L319.893 128.906L324.267 126.829C333.361 122.558 337.275 116.441 337.275 106.515C337.275 99.7048 334.282 93.8183 329.217 90.2402C326.109 88.1626 323.807 87.701 317.015 87.701C312.296 87.701 308.497 88.1626 308.497 88.7397Z" fill="white"/>
<path d="M427.061 88.6245C427.061 89.2016 428.327 90.3558 429.939 91.1637C431.551 92.0871 433.162 93.8184 433.507 95.0881C433.853 96.4731 433.968 112.978 433.738 131.907L433.392 166.303L429.479 169.65L425.45 172.882L431.205 173.459C439.839 174.498 450.429 174.267 452.04 172.882C453.191 171.958 453.537 162.84 453.537 133.985C453.537 93.1259 453.652 92.2025 459.868 90.702C461.479 90.2404 462.515 89.4324 462.17 88.8553C461.249 87.4703 427.061 87.2394 427.061 88.6245Z" fill="white"/>
<path d="M506.488 88.5089C506.488 88.8552 507.409 90.2402 508.56 91.5099C510.286 93.472 510.517 97.3963 510.862 129.945C511.207 165.033 511.092 166.187 508.79 168.496C504.416 172.882 505.682 174.267 513.74 174.151C517.653 174.036 523.294 173.805 526.287 173.459C531.236 172.997 531.697 172.651 530.661 170.804C529.97 169.65 529.51 161.109 529.51 151.875V135.024H542.748H555.985V151.298C555.985 160.647 555.41 168.496 554.719 169.881C554.028 171.15 553.798 172.535 554.259 172.882C555.295 173.921 579.008 174.382 579.008 173.343C579.008 172.882 577.972 170.92 576.705 169.073C574.518 165.841 574.403 163.648 574.403 130.291C574.403 101.09 574.748 94.7417 576.13 92.7795C579.583 88.2781 578.432 87.701 566.691 87.701H555.41L555.755 109.631L556.216 131.676L542.632 131.33L529.164 130.984L529.395 111.939C529.51 101.436 529.97 91.7407 530.316 90.2402C530.891 87.701 530.776 87.701 518.689 87.701C512.013 87.701 506.488 88.0472 506.488 88.5089Z" fill="white"/>
<path d="M80.1174 97.9735C77.2396 101.782 74.8223 105.36 74.8223 105.938C74.8223 106.515 77.9303 109.977 81.844 113.671L88.8658 120.365L93.24 115.287C101.528 105.707 101.528 105.938 93.3551 98.089C89.3262 94.2801 85.988 91.1637 85.7578 91.1637C85.6427 91.1637 83.1102 94.2801 80.1174 97.9735Z" fill="white"/>
<path d="M128.579 98.7814C124.895 102.244 122.018 105.591 122.018 106.053C122.018 106.515 123.399 108.13 125.01 109.746C126.622 111.247 128.694 113.902 129.615 115.633C130.651 117.71 132.262 118.865 133.874 118.865C136.637 118.865 148.493 108.246 148.493 105.822C148.493 103.86 138.248 92.3178 136.522 92.3178C135.716 92.3178 132.147 95.2033 128.579 98.7814Z" fill="white"/>
<path d="M33.7277 98.3196C33.0371 99.1275 31.7708 101.321 30.85 103.283C29.9291 105.129 28.5477 107.9 27.6268 109.169C26.2455 111.478 26.4757 111.939 30.2744 115.286C35.9148 120.365 42.361 124.636 44.2028 124.636C46.0446 124.636 48.2317 122.096 51.685 116.094L54.2175 111.478L50.0735 108.015C47.6561 106.053 43.8575 102.706 41.4402 100.628C36.7206 96.5882 35.3393 96.242 33.7277 98.3196Z" fill="white"/>
<path d="M180.724 100.628C178.076 102.706 174.393 105.822 172.551 107.553C169.213 110.554 169.213 110.554 171.055 115.056C172.091 117.48 174.163 120.827 175.774 122.558L178.767 125.675L187.17 118.749C191.89 114.94 195.688 111.247 195.688 110.554C195.688 108.823 187.516 96.9347 186.364 96.9347C185.904 96.9347 183.372 98.666 180.724 100.628Z" fill="white"/>
<path d="M109.816 119.211C108.549 119.903 105.557 122.789 103.139 125.444C98.65 130.522 98.65 131.33 102.679 135.601C103.83 136.87 105.902 139.294 107.168 141.025C108.434 142.872 110.276 144.257 111.197 144.257C112.578 144.257 121.442 135.601 123.399 132.138C123.974 131.215 122.017 128.214 118.219 124.174C112.809 118.403 112.003 117.826 109.816 119.211Z" fill="white"/>
<path d="M59.2823 126.482C57.0952 129.483 55.2534 132.484 55.2534 133.292C55.2534 135.485 66.9947 146.566 69.2969 146.566C70.4481 146.566 72.6352 144.488 74.1316 142.064C75.7432 139.525 77.5849 137.217 78.2756 136.755C80.6929 135.254 79.1965 132.831 72.2898 127.059C68.2609 123.828 64.6925 121.173 64.2321 121.173C63.7716 121.173 61.5845 123.597 59.2823 126.482Z" fill="white"/>
<path d="M150.22 127.521L143.313 133.639L146.076 138.717C150.335 146.45 151.256 147.143 155.054 145.527C158.738 143.911 168.062 135.485 168.062 133.754C168.062 131.792 159.544 121.173 158.047 121.173C157.472 121.289 154.018 124.059 150.22 127.521Z" fill="white"/>
<path d="M200.868 129.483C199.602 130.176 196.954 132.138 194.882 133.754C192.926 135.37 189.933 137.678 188.321 138.833L185.443 140.795L188.206 146.681C192.005 155.107 192.465 155.338 197.53 151.875C200.062 150.259 203.976 147.605 206.394 145.989C208.696 144.373 210.653 142.641 210.653 142.064C210.653 139.987 206.394 130.984 204.782 129.599C203.631 128.675 202.48 128.56 200.868 129.483Z" fill="white"/>
<path d="M14.5039 135.254C13.1226 138.602 12.0866 141.949 12.3168 142.526C12.547 143.219 16.4608 146.219 20.9501 149.22C30.159 155.338 29.8136 155.338 34.8785 146.45L37.8714 141.141L30.3892 136.293C26.3603 133.639 23.0221 130.984 23.0221 130.291C23.0221 129.714 21.7559 129.253 20.1443 129.253C17.727 129.253 16.8061 130.291 14.5039 135.254Z" fill="white"/>
<path d="M84.261 146.912C82.8797 148.412 81.7286 150.028 81.7286 150.605C81.7286 151.183 80.9228 152.568 79.7717 153.722C78.045 155.684 78.2752 156.146 84.9517 162.725C88.7503 166.534 92.3188 169.65 92.8943 169.65C93.4699 169.65 94.8512 167.919 96.0023 165.841C97.2685 163.879 99.2254 160.993 100.492 159.493L102.909 156.954L96.693 150.605C93.2397 147.143 89.5561 144.257 88.6352 144.257C87.5992 144.257 85.6423 145.412 84.261 146.912Z" fill="white"/>
<path d="M127.773 148.528C120.291 155.222 120.06 156.261 124.55 162.725C126.622 165.841 129.039 168.727 129.96 169.073C130.766 169.419 133.644 167.457 136.521 164.571C139.284 161.686 142.507 158.916 143.543 158.223C145.04 157.415 145.27 156.607 144.464 155.453C143.888 154.53 141.932 151.644 140.09 148.99C136.176 143.103 133.759 142.988 127.773 148.528Z" fill="white"/>
<path d="M353.39 154.068C353.39 159.493 353.966 165.033 354.541 166.187C355.232 167.457 357.879 168.957 360.642 169.65C363.29 170.342 367.088 171.727 369.16 172.651C371.117 173.574 374.801 174.267 377.448 174.267C381.362 174.267 382.168 173.92 382.168 171.958C382.168 170.227 381.362 169.65 378.945 169.65C377.218 169.65 373.995 168.38 371.808 166.764C367.434 163.532 359.951 153.375 358.34 148.297C357.764 146.335 356.383 144.719 355.347 144.488C353.62 144.142 353.39 145.411 353.39 154.068Z" fill="white"/>
<path d="M491.063 151.413C488.76 156.723 484.962 161.57 483.12 161.57C482.429 161.57 480.933 162.494 479.782 163.533C477.134 165.956 470.573 168.496 464.472 169.419C461.479 169.996 459.868 170.804 459.868 171.958C459.868 173.459 462.745 173.69 477.365 174.036C494.746 174.267 494.976 174.267 495.552 171.727C496.703 167.341 495.667 147.374 494.286 146.912C493.71 146.681 492.214 148.759 491.063 151.413Z" fill="white"/>
<path d="M43.7422 153.029C38.332 159.262 39.0227 162.494 46.8502 168.265C50.5338 170.919 53.9871 173.112 54.6778 173.112C55.2533 173.112 57.3253 170.458 59.1671 167.226L62.3902 161.339L58.9369 157.992C56.98 156.03 53.6418 153.26 51.3395 151.76L47.3107 148.989L43.7422 153.029Z" fill="white"/>
<path d="M170.364 152.452C161.271 160.416 161.04 160.647 161.846 163.186C162.997 167.111 165.99 173.113 167.026 173.805C168.177 174.498 180.494 165.495 182.221 162.725C182.911 161.455 182.336 159.378 179.919 155.222C178.077 152.221 176.12 149.451 175.544 149.336C174.854 149.105 172.551 150.49 170.364 152.452Z" fill="white"/>
<path d="M3.56847 166.649C2.8778 169.534 2.30225 172.074 2.30225 172.42C2.30225 172.766 5.29513 174.613 8.97868 176.575C12.5471 178.422 16.6911 180.846 18.0724 181.885C20.3746 183.5 20.6049 183.5 21.6409 181.538C22.3315 180.384 23.1373 177.499 23.5978 175.19C24.4035 171.035 24.2884 170.92 17.1515 166.303C7.48223 159.954 5.29513 160.07 3.56847 166.649Z" fill="white"/>
<path d="M206.278 166.303C202.365 168.842 199.142 171.612 199.142 172.536C199.142 174.498 202.48 182.346 203.286 182.346C204.091 182.346 213.646 176.806 217.674 174.036C220.552 172.074 220.667 171.728 219.516 166.764C218.02 160.07 215.948 159.955 206.278 166.303Z" fill="white"/>
<path d="M110.852 168.034C110.161 168.38 107.629 170.92 105.326 173.69C101.413 178.537 101.298 178.999 102.909 182C103.83 183.731 106.132 187.078 108.089 189.271C111.427 193.08 111.658 193.196 112.924 191.118C113.729 189.849 116.032 187.078 118.219 185.001C120.291 182.808 122.017 180.73 122.017 180.153C122.017 179.345 112.924 167.226 112.463 167.457C112.348 167.457 111.658 167.803 110.852 168.034Z" fill="white"/>
<path d="M67.4551 171.035C64.232 175.998 63.0809 179.807 64.0018 181.423C65.4982 183.731 77.1244 194.35 77.5849 193.773C77.8151 193.542 79.4266 190.888 81.0382 187.771C83.3404 183.731 83.8009 181.769 82.9951 180.269C81.4986 177.499 71.7142 168.496 70.2178 168.496C69.6422 168.496 68.376 169.65 67.4551 171.035Z" fill="white"/>
<path d="M144.234 174.844C138.478 180.73 138.133 183.5 142.277 189.618C145.155 194.004 145.27 194.004 147.687 192.042C152.752 187.771 160.004 180.73 160.004 179.922C160.004 179.461 158.623 176.921 156.896 174.382C152.982 168.38 150.45 168.38 144.234 174.844Z" fill="white"/>
<path d="M181.07 181.654C173.012 186.963 171.976 189.964 176.465 195.273L178.998 198.39L186.825 193.196C193.617 188.81 194.538 187.656 193.962 185.463C192.581 181.077 190.509 177.383 189.358 177.037C188.782 176.921 184.983 178.999 181.07 181.654Z" fill="white"/>
<path d="M30.044 182.462C28.6627 186.963 28.7778 187.425 31.3102 189.849C32.8067 191.234 36.3751 193.773 39.2529 195.389L44.6631 198.505L46.5048 195.62C47.5408 194.119 48.3466 191.234 48.3466 189.387C48.3466 186.732 47.4257 185.463 44.0875 183.385C41.6702 181.885 39.0226 180.038 38.2169 179.23C37.4111 178.422 35.4542 177.729 34.0729 177.729C32.0009 177.729 31.1951 178.768 30.044 182.462Z" fill="white"/>
<path d="M90.0167 194.119C85.8727 201.16 85.8727 202.314 91.0527 208.085C93.5851 211.086 96.1175 213.51 96.4629 213.51C97.614 213.394 103.6 204.738 103.6 203.122C103.6 201.391 94.6211 190.426 93.2398 190.426C92.6642 190.426 91.2829 192.157 90.0167 194.119Z" fill="white"/>
<path d="M0 197.236V202.891L5.41021 204.161C8.28798 204.969 12.2018 206.354 14.0435 207.277L17.3817 209.009L17.0364 204.046C16.8062 200.121 16.1155 198.852 13.8133 197.697C9.89953 195.735 0.805776 191.58 0.345333 191.58C0.115111 191.58 0 194.119 0 197.236Z" fill="white"/>
<path d="M124.665 194.812C122.708 196.659 120.866 199.198 120.406 200.468C119.485 203.238 122.593 211.086 125.01 212.01C126.967 212.702 136.982 203.699 136.982 201.16C136.982 199.66 130.306 191.58 129.039 191.58C128.579 191.58 126.622 193.081 124.665 194.812Z" fill="white"/>
<path d="M218.711 193.542C217.79 193.888 215.488 194.812 213.531 195.62C211.689 196.543 208.926 197.466 207.545 197.928C205.473 198.505 204.897 199.544 204.897 202.314C204.897 204.392 205.358 206.816 206.049 207.739C206.854 209.124 207.43 209.009 209.502 207.162C210.883 205.892 214.106 204.276 216.754 203.699C221.358 202.545 221.589 202.199 221.934 197.582C222.279 192.734 221.934 192.388 218.711 193.542Z" fill="white"/>
<path d="M55.5987 194.812C54.908 195.273 53.6418 197.12 52.9511 198.967C51.9151 201.968 52.0302 202.776 54.908 205.892C56.6347 207.854 58.5915 209.586 59.052 209.816C59.5124 210.047 61.4693 211.548 63.3111 213.048L66.5342 215.818L68.8364 212.702C69.9875 210.855 71.3688 208.778 71.8293 208.085C72.6351 206.585 66.4191 199.659 60.7787 195.735C57.9009 193.657 57.5556 193.542 55.5987 194.812Z" fill="white"/>
<path d="M157.011 200.121L150.22 206.238L152.177 210.509C153.328 212.817 154.709 214.664 155.4 214.664C157.702 214.664 170.249 204.853 170.364 203.007C170.364 199.082 167.832 193.888 165.875 193.888C164.724 193.888 160.81 196.658 157.011 200.121Z" fill="white"/>
<path d="M24.9791 203.93C24.5187 204.276 24.1733 206.123 24.1733 207.97C24.1733 210.509 25.2093 211.779 29.008 214.203C31.6555 215.934 35.224 217.665 36.9506 218.127C39.5982 218.935 40.1737 218.704 40.7493 216.626C41.5551 213.395 39.8284 210.509 36.0298 209.009C34.188 208.316 31.1951 206.7 29.2382 205.431C27.2813 204.161 25.3244 203.468 24.9791 203.93Z" fill="white"/>
<path d="M195.228 204.046C194.883 204.507 191.89 206.469 188.437 208.201C183.372 210.74 181.99 212.01 181.415 214.895C181.07 216.857 180.954 218.819 181.3 219.166C181.645 219.512 185.789 217.781 190.509 215.472C196.84 212.356 199.142 210.625 199.142 209.009C199.142 204.507 196.84 201.506 195.228 204.046Z" fill="white"/>
<path d="M107.744 216.742C106.132 219.165 104.751 221.82 104.751 222.744C104.751 224.59 110.391 233.131 111.658 233.131C112.579 233.131 118.564 224.129 118.564 222.744C118.564 221.358 112.579 212.356 111.658 212.356C111.197 212.356 109.471 214.318 107.744 216.742Z" fill="white"/>
<path d="M77.8148 216.049C74.937 220.089 75.6277 222.628 81.153 228.168C86.7934 234.055 89.0957 234.055 90.1317 228.515C91.0525 224.244 89.7863 221.474 84.8366 216.857C80.3472 212.817 80.0019 212.817 77.8148 216.049Z" fill="white"/>
<path d="M136.521 218.588C130.766 224.129 130.075 226.783 133.413 230.939L135.485 233.478L140.78 229.092C143.658 226.668 146.421 223.898 146.766 223.09C147.457 221.128 144.464 213.51 142.968 213.51C142.392 213.51 139.514 215.818 136.521 218.588Z" fill="white"/>
<path d="M48.3467 220.204C48.3467 223.667 49.4978 226.206 51.2244 226.206C52.0302 226.206 54.908 228.053 57.6707 230.361C62.7355 234.517 64.4622 234.286 64.3471 229.092C64.3471 226.552 55.8289 219.743 51.2244 218.588C48.8071 218.011 48.3467 218.242 48.3467 220.204Z" fill="white"/>
<path d="M164.378 222.975C160.234 225.86 157.702 228.515 157.702 229.9C157.702 233.362 160.81 233.593 164.723 230.361C166.68 228.746 168.752 227.361 169.328 227.361C171.63 227.361 174.738 222.859 174.163 220.551C173.357 217.204 171.86 217.55 164.378 222.975Z" fill="white"/>
<path d="M72.52 236.479C72.52 238.787 83.3404 250.329 85.5275 250.445C85.988 250.445 86.3333 249.406 86.3333 248.021C86.3333 245.713 82.0742 241.096 75.7431 236.479L72.52 234.17V236.479Z" fill="white"/>
<path d="M97.384 237.979C96.2329 242.596 96.5782 244.097 100.722 249.868C103.485 253.792 104.636 254.831 104.636 253.215C104.636 252.061 104.981 249.406 105.327 247.559C105.787 245.251 105.212 242.711 103.83 240.057C101.183 235.209 98.42 234.286 97.384 237.979Z" fill="white"/>
<path d="M119.37 240.172C115.802 245.597 115.687 246.751 117.989 250.098C118.91 251.483 119.37 253.561 119.025 254.715C118.564 255.869 120.176 253.792 122.478 249.983C126.622 243.289 127.313 240.749 125.931 237.287C124.78 234.286 122.593 235.209 119.37 240.172Z" fill="white"/>
<path d="M143.198 238.672C138.939 242.365 135.14 247.906 136.291 248.944C137.212 249.983 142.047 247.213 147.112 242.942C149.875 240.403 151.026 238.672 150.45 237.402C149.414 234.632 147.342 234.978 143.198 238.672Z" fill="white"/>
</g>
<defs>
<clipPath id="clip0">
<rect width="579" height="255" fill="white"/>
</clipPath>
</defs>
</svg>
